<?xml version="1.0" encoding="UTF-8" standalone="no"?>
<svg
   xmlns:dc="http://purl.org/dc/elements/1.1/"
   xmlns:cc="http://creativecommons.org/ns#"
   xmlns:rdf="http://www.w3.org/1999/02/22-rdf-syntax-ns#"
   xmlns:svg="http://www.w3.org/2000/svg"
   xmlns="http://www.w3.org/2000/svg"
   xmlns:xlink="http://www.w3.org/1999/xlink"
   xmlns:sodipodi="http://sodipodi.sourceforge.net/DTD/sodipodi-0.dtd"
   xmlns:inkscape="http://www.inkscape.org/namespaces/inkscape"
   viewBox="0 0 48 48"
   version="1.1"
   id="svg27"
   sodipodi:docname="distributor-logo-archlinux.svg"
   inkscape:version="0.92.4 5da689c313, 2019-01-14">
  <metadata
     id="metadata31">
    <rdf:RDF>
      <cc:Work
         rdf:about="">
        <dc:format>image/svg+xml</dc:format>
        <dc:type
           rdf:resource="http://purl.org/dc/dcmitype/StillImage" />
      </cc:Work>
    </rdf:RDF>
  </metadata>
  <sodipodi:namedview
     pagecolor="#ffffff"
     bordercolor="#666666"
     borderopacity="1"
     objecttolerance="10"
     gridtolerance="10"
     guidetolerance="10"
     inkscape:pageopacity="0"
     inkscape:pageshadow="2"
     inkscape:window-width="1366"
     inkscape:window-height="683"
     id="namedview29"
     showgrid="true"
     inkscape:zoom="4.9166667"
     inkscape:cx="21.764426"
     inkscape:cy="36.452828"
     inkscape:window-x="0"
     inkscape:window-y="20"
     inkscape:window-maximized="1"
     inkscape:current-layer="svg27">
    <inkscape:grid
       type="xygrid"
       id="grid886" />
  </sodipodi:namedview>
  <defs
     id="defs7">
    <linearGradient
       id="a"
       x1="1"
       x2="47"
       gradientUnits="userSpaceOnUse"
       gradientTransform="rotate(-90 24 24)">
      <stop
         stop-color="#1791d1"
         id="stop2" />
      <stop
         offset="1"
         stop-color="#19a0e3"
         id="stop4" />
    </linearGradient>
    <linearGradient
       id="a-3"
       x1="1"
       x2="47"
       gradientUnits="userSpaceOnUse"
       gradientTransform="rotate(-90,-16.160517,52.270686)">
      <stop
         stop-color="#1791d1"
         id="stop2-6"
         style="stop-color:#11adff;stop-opacity:1" />
      <stop
         offset="1"
         stop-color="#19a0e3"
         id="stop4-7"
         style="stop-color:#0067f1;stop-opacity:1" />
    </linearGradient>
    <linearGradient
       inkscape:collect="always"
       xlink:href="#a-3"
       id="linearGradient896"
       gradientUnits="userSpaceOnUse"
       x1="12.94449"
       y1="13.595263"
       x2="33.236176"
       y2="32.007366"
       gradientTransform="matrix(1.7248444,0,0,1.7248444,-17.327232,-13.449713)" />
  </defs>
  <path
     sodipodi:nodetypes="cccccccccccccccc"
     style="fill:none;fill-opacity:1;fill-rule:evenodd;stroke:url(#linearGradient896);stroke-width:1.80000007;stroke-linecap:round;stroke-linejoin:round;stroke-miterlimit:4;stroke-dasharray:none;stroke-opacity:1"
     inkscape:connector-curvature="0"
     id="path19"
     d="M 24.069034,3.798731 C 22.22345,8.3126488 21.34463,10.613721 19.297239,15 c 1.253962,1.32813 2.562269,3.540976 5.075367,5.293418 C 21.6715,19.187793 19.628937,18.399106 18,17.780808 15.373062,23.258914 11.719148,30.197475 3.3709008,45.196721 9.9339337,41.410688 15.0205,39.071799 19.763822,38.183504 19.545557,37.263062 19.438998,36.319672 19.446451,35.373733 l 0.0069,-0.208707 c 0.108665,-4.20517 2.290593,-7.439253 4.884759,-7.216749 2.587267,0.215606 4.601885,3.806732 4.500119,8.011903 -0.01587,0.759576 -0.106026,1.515779 -0.269075,2.257821 4.689852,0.915892 9.722948,3.254781 16.198013,6.994244 -1.272935,-2.350963 -2.291112,-3.718433 -3.376039,-5.733052 -1.711046,-1.32813 -3.630279,-3.815687 -7.2766,-5.681968 C 36.620726,34.450941 38,34.66675 39.306664,35 28.243512,14.403633 27.855067,12.716177 24.062134,3.8142546" />
</svg>
