<?xml version="1.0" encoding="UTF-8" standalone="no"?>
<svg
   xmlns:dc="http://purl.org/dc/elements/1.1/"
   xmlns:cc="http://creativecommons.org/ns#"
   xmlns:rdf="http://www.w3.org/1999/02/22-rdf-syntax-ns#"
   xmlns:svg="http://www.w3.org/2000/svg"
   xmlns="http://www.w3.org/2000/svg"
   xmlns:xlink="http://www.w3.org/1999/xlink"
   xmlns:sodipodi="http://sodipodi.sourceforge.net/DTD/sodipodi-0.dtd"
   xmlns:inkscape="http://www.inkscape.org/namespaces/inkscape"
   width="48"
   height="48"
   version="1.1"
   id="svg12"
   sodipodi:docname="deepin-launcher.svg"
   inkscape:version="0.92.4 5da689c313, 2019-01-14">
  <metadata
     id="metadata16">
    <rdf:RDF>
      <cc:Work
         rdf:about="">
        <dc:format>image/svg+xml</dc:format>
        <dc:type
           rdf:resource="http://purl.org/dc/dcmitype/StillImage" />
      </cc:Work>
    </rdf:RDF>
  </metadata>
  <sodipodi:namedview
     pagecolor="#ffffff"
     bordercolor="#666666"
     borderopacity="1"
     objecttolerance="10"
     gridtolerance="10"
     guidetolerance="10"
     inkscape:pageopacity="0"
     inkscape:pageshadow="2"
     inkscape:window-width="1366"
     inkscape:window-height="683"
     id="namedview14"
     showgrid="true"
     inkscape:zoom="9.8333333"
     inkscape:cx="17.804989"
     inkscape:cy="20.545278"
     inkscape:window-x="0"
     inkscape:window-y="20"
     inkscape:window-maximized="1"
     inkscape:current-layer="svg12">
    <inkscape:grid
       type="xygrid"
       id="grid823" />
  </sodipodi:namedview>
  <defs
     id="defs8">
    <linearGradient
       gradientUnits="userSpaceOnUse"
       id="a"
       x1=".5"
       x2=".5"
       y1=".046"
       y2=".972">
      <stop
         offset="0%"
         stop-color="#00ABFF"
         id="stop2" />
      <stop
         offset="100%"
         stop-color="#0163FA"
         id="stop4" />
    </linearGradient>
    <linearGradient
       xlink:href="#a"
       id="b"
       x1="4.613"
       y1="6.035"
       x2="40.613"
       y2="41.035"
       gradientUnits="userSpaceOnUse"
       gradientTransform="matrix(1.0723637,0,0,1.0723637,-0.23405555,-0.71854163)" />
  </defs>
  <path
     d="M 23.790109,1.6996386 A 22.528217,22.528217 0 0 0 1.2597471,24.23 22.528217,22.528217 0 0 0 23.790109,46.760361 22.528217,22.528217 0 0 0 46.317253,24.23 22.528217,22.528217 0 0 0 23.789036,1.6996386 Z m -0.0054,2.1447274 c 11.252312,0 20.37491,9.125815 20.37491,20.378127 0,11.252313 -9.121526,20.372766 -20.37491,20.372766 -11.252313,0 -20.3749107,-9.120453 -20.3749107,-20.372766 0,-11.253384 9.1225977,-20.3770547 20.3749107,-20.3770547 z m -0.05362,2.0911092 c -0.946898,0 -1.876637,0.071848 -2.783857,0.2112556 -2.560804,3.8605092 -3.884101,9.8335752 -3.77472,13.5343022 0,0 -0.179085,5.676021 3.635313,7.688848 0,0 3.430492,1.53348 5.767172,-3.424057 0,0 1.604256,-2.79887 0.950114,-9.121526 0,0 0.627333,0.112598 0.697037,0.214473 0.07185,0.09973 1.380132,4.866386 0.458971,8.881316 0,0 -0.846095,4.7184 -5.0133,5.79827 -4.167205,1.078798 -7.415395,-1.531335 -9.620175,-3.990265 C 12.454152,23.950113 10.109965,19.261739 8.8767465,13.593224 A 18.146539,18.146539 0 0 0 5.4998732,24.165658 c 0,2.941494 0.6970364,5.722133 1.9356165,8.182135 4.1886523,1.223567 14.4876333,3.494834 21.0644403,-1.325441 4.395619,-3.221381 3.830483,-8.381595 3.830483,-8.381595 -0.07292,-3.924851 -2.463219,-7.822893 -2.463219,-7.822893 9.292031,8.406259 3.799384,17.744402 3.799384,17.744402 -2.402094,4.904992 -7.183764,8.149964 -11.565442,9.762799 0.536182,0.04718 1.07987,0.07078 1.629993,0.07078 10.06735,0 18.230183,-8.16176 18.230183,-18.230183 0,-4.289455 -1.482007,-8.232536 -3.961312,-11.345608 -0.82572,0.04826 -1.753315,0.07292 -2.71308,0.04182 0,0 -4.943597,0.229486 -7.715657,1.612835 0,0 -2.067517,0.921161 -4.133962,2.483595 0,0 -0.438597,0.220907 -0.41715,1.026252 0.0193,0.804273 -0.420366,2.942566 -1.885215,4.197231 0,0 -1.045555,0.538327 -0.523313,1.308284 0,0 0.706687,1.02518 1.700768,-0.05147 0,0 2.56295,-2.638015 2.720587,-6.888865 0,0 0.811779,-0.691674 2.092182,-0.896496 0,0 0.23592,6.377347 -2.927553,9.578353 0,0 -3.010125,3.278216 -3.97847,-1.587099 0,0 -1.17531,-4.6369 4.893196,-10.141343 0,0 3.903404,-3.8980422 6.325873,-5.8626125 a 18.162624,18.162624 0 0 0 -7.70815,-1.7050583 z"
     id="path10"
     style="fill:url(#b);stroke-width:1.07236373;paint-order:stroke fill markers"
     inkscape:connector-curvature="0" />
</svg>
