<svg xmlns="http://www.w3.org/2000/svg" xmlns:xlink="http://www.w3.org/1999/xlink" height="48" width="48"><defs><linearGradient id="a"><stop stop-color="#30d300" offset="0"/><stop stop-color="#c8c432" offset="1"/></linearGradient><linearGradient gradientUnits="userSpaceOnUse" y2="1047.589" x2="40.495" y1="1019.73" x1="9.161" id="b" xlink:href="#a"/></defs><g transform="translate(.814 -1005.472)" stroke-linejoin="round" stroke-linecap="round" stroke-width="1.4" fill="none" stroke="url(#b)"><rect ry="1" rx="1" y="1021.281" x="10.699" height="26.136" width="26"/><path d="M18.699 1012.416c-1 0-2 1-2 2v2l3.195.025 7.805-.025h3v-2 0c0-1-1-2-2-2z"/><path d="M6.699 1021.416c0-2 2-5 3-5h28c1 0 3 3 3 5z"/><rect ry="1" rx="1" y="1024.416" x="14.699" height="20" width="4"/><rect width="4" height="20" x="21.699" y="1024.416" rx="1" ry="1"/><rect ry="1" rx="1" y="1024.416" x="28.699" height="20" width="4"/></g></svg>