<svg xmlns="http://www.w3.org/2000/svg" viewBox="0 0 22 22">
    <path d="M17.853 2.29c-1.188-.041-2.307 1.106-3.038 1.62-.876-.266-2.144-.414-3.097-.42a11.755 11.755 0 0 0-3.207.42c-.968-.456-1.928-1.646-3.015-1.594-.617 1.612-.226 2.803-.11 3.098-.727.818-.839 1.865-.839 3.142 0 4.488 2.322 5.492 4.847 5.788-.325.291-.522.81-.626 1.566-.647.301-1.895 1.113-2.91-.675 0 0-.163-1.304-1.305-1.386 0 0-2.478.077-1.446.805 0 0 1.422.147 1.94 1.5 0 0 .538 2.279 3.7 1.57 0 .261.064 2.513.064 2.513l3.392.033 2.584-.116s.365-1.874.365-2.42c0-1.092-.794-3.037-1.202-3.399 2.532-.289 5.008-1.28 5.008-5.779 0-1.278-.08-2.323-.808-3.142.117-.295.507-1.486-.113-3.1 0 0-.06-.018-.184-.024z" fill="#232629"/>
</svg>
